<?xml version="1.0" encoding="iso-8859-1"?>
<!-- Generator: Adobe Illustrator 24.1.0, SVG Export Plug-In . SVG Version: 6.00 Build 0)  -->
<svg version="1.1" id="workspace" xmlns="http://www.w3.org/2000/svg" xmlns:xlink="http://www.w3.org/1999/xlink" x="0px" y="0px"
	 viewBox="0 0 649.5688477 742" style="enable-background:new 0 0 649.5688477 742;" xml:space="preserve">
<path style="fill:#FFFFFF;" d="M603.5688477,0H46C20.6355591,0,0,20.6355591,0,46v650c0,25.364502,20.6355591,46,46,46h557.5688477
	c25.364502,0,46-20.635498,46-46V46C649.5688477,20.6355591,628.9333496,0,603.5688477,0L603.5688477,0z"/>
<path id="XMLID_6_" style="fill:#E8F5FA;" d="M603.5688477,736H46.0000153c-22.0913887,0-40-17.9085693-40-40v-650
	c0-22.0913887,17.9086113-40,40-40h557.5688477c22.0913696,0,40,17.9086113,40,40v650
	C643.5688477,718.0914307,625.6602173,736,603.5688477,736z"/>
</svg>
